# xmcd
#
# Track frame offsets: 
#        150
#        17233
#        32278
#        50775
#        68195
#        79201
#        105597
#        129458
#        139396
#        156933
#        188763
#
# Disc length: 2955 seconds
#
# Revision: 0
# Processed by: cddbd v1.4PL0 Copyright (c) Steve Scherf et al.
# Submitted via: ExactAudioCopy v0.90b3
#
DISCID=950b890b
DTITLE=The Legendary Tiger Man - Naked Blues
DYEAR=2003
DGENRE=Blues
TTITLE0=Gonna Shoot My Woman
TTITLE1=Naked Blues
TTITLE2=Break My Bone
TTITLE3=I'll Make You Mine
TTITLE4=Sauselito 1PM
TTITLE5=Mannish Boy
TTITLE6=Lust
TTITLE7=I'm Just A Man
TTITLE8=Sometimes I Miss You
TTITLE9=She Said
TTITLE10=Bonus Video
EXTD=
EXTT0=
EXTT1=
EXTT2=
EXTT3=
EXTT4=
EXTT5=
EXTT6=
EXTT7=
EXTT8=
EXTT9=
EXTT10=
PLAYORDER=
